<svg width="78" height="78" xmlns="http://www.w3.org/2000/svg" xmlns:xlink="http://www.w3.org/1999/xlink" xml:space="preserve" overflow="hidden"><g transform="translate(-51 -49)"><path d="M82.9686 75.8125 93.3126 75.8125 82.9938 57.9375C73.4416 60.1711 65.5153 66.8038 61.6324 75.8125Z" fill="#FFC000" fill-opacity="0.8"/><path d="M100.35 81.5 100.331 81.5106 102.255 84.8418 112.588 66.9563C106.756 60.6794 98.5725 57.1168 90.0049 57.125 88.8006 57.1274 87.5974 57.1997 86.4014 57.3411Z" fill="#FFC000" fill-opacity="0.8"/><path d="M99.0253 96.9375 119.561 96.9375C122.384 87.5879 120.62 77.4541 114.804 69.6082Z" fill="#FFC000" fill-opacity="0.8"/><path d="M97.0411 100.188 86.6972 100.188 97.0159 118.062C106.568 115.829 114.494 109.196 118.377 100.188Z" fill="#FFC000" fill-opacity="0.8"/><path d="M79.6593 94.5 79.6788 94.4894 77.7418 91.1354 67.4125 109.032C73.2441 115.316 81.4319 118.883 90.0049 118.875 91.2092 118.872 92.4123 118.8 93.6083 118.659Z" fill="#FFC000" fill-opacity="0.8"/><path d="M80.9593 79.0625 60.4486 79.0625C57.6281 88.404 59.3866 98.5289 65.1919 106.372Z" fill="#FFC000" fill-opacity="0.8"/></g></svg>