<svg width="77" height="78" xmlns="http://www.w3.org/2000/svg" xmlns:xlink="http://www.w3.org/1999/xlink" xml:space="preserve" overflow="hidden"><g transform="translate(-49 -14)"><path d="M31.5588 26.4688 41.7701 26.4688 31.5836 8.82292C22.1539 11.0279 14.3292 17.5756 10.4961 26.4688Z" fill="#00B0F0" fill-opacity="0.8" transform="matrix(1 0 0 1.01299 49 14)"/><path d="M48.7169 32.0833 48.6985 32.0938 50.5978 35.3823 60.7979 17.726C55.0412 11.5297 46.9626 8.01269 38.5048 8.02083 37.316 8.02324 36.1282 8.09454 34.9476 8.23419Z" fill="#00B0F0" fill-opacity="0.8" transform="matrix(1 0 0 1.01299 49 14)"/><path d="M47.4095 47.3229 67.6822 47.3229C70.4689 38.0932 68.7275 28.0893 62.986 20.344Z" fill="#00B0F0" fill-opacity="0.8" transform="matrix(1 0 0 1.01299 49 14)"/><path d="M45.4509 50.5312 35.2395 50.5312 45.426 68.1771C54.8556 65.9722 62.6801 59.4245 66.5128 50.5312Z" fill="#00B0F0" fill-opacity="0.8" transform="matrix(1 0 0 1.01299 49 14)"/><path d="M28.2919 44.9167 28.3111 44.9062 26.399 41.5952 16.2021 59.2619C21.9589 65.4654 30.0418 68.9871 38.5048 68.9792 39.6937 68.9767 40.8814 68.9054 42.0621 68.7658Z" fill="#00B0F0" fill-opacity="0.8" transform="matrix(1 0 0 1.01299 49 14)"/><path d="M29.5752 29.6771 9.32743 29.6771C6.5431 38.8988 8.2791 48.894 14.01 56.6367Z" fill="#00B0F0" fill-opacity="0.8" transform="matrix(1 0 0 1.01299 49 14)"/></g></svg>